<svg xmlns="http://www.w3.org/2000/svg" viewBox="0 0 512 512" fill="none">
  <defs>
    <linearGradient id="logoFill" x1="110" y1="110" x2="392" y2="356" gradientUnits="userSpaceOnUse">
      <stop offset="0" stop-color="#1f2125" />
      <stop offset="1" stop-color="#0d0f12" />
    </linearGradient>
  </defs>
  <path
    d="M256 183c76.216 0 138 61.784 138 138v14H118v-14c0-76.216 61.784-138 138-138Z"
    fill="url(#logoFill)"
  />
  <path
    d="M60 354c70.341-30.251 141.394-37.156 213.159-20.715 58.688 13.445 113.302 15.019 163.841 4.722 24.359-4.961 49.359-13.192 75-24.693-21.235 24.843-47.258 43.548-78.069 56.116-62.145 25.34-129.449 29.114-201.909 11.322-46.195-11.34-103.536-20.456-172.022-27.352Z"
    fill="url(#logoFill)"
  />
  <path
    d="M117 376c45.915-16.698 90.721-21.684 134.418-14.958 28.962 4.459 58.487 6.356 88.574 5.691 17.436-.385 36.105-1.949 56.008-4.692-16.775 15.721-37.427 28.407-61.956 38.059-48.338 19.018-104.02 20.984-167.044 5.898-15.787-3.778-32.454-8.444-50-13.998Z"
    fill="url(#logoFill)"
  />
</svg>
